<?xml version="1.0" encoding="utf-8"?>
<!-- Generator: Adobe Illustrator 24.2.3, SVG Export Plug-In . SVG Version: 6.00 Build 0)  -->
<svg version="1.1" id="Layer_1" xmlns="http://www.w3.org/2000/svg" xmlns:xlink="http://www.w3.org/1999/xlink" x="0px" y="0px"
	 viewBox="0 0 1000 1000" style="enable-background:new 0 0 1000 1000;" xml:space="preserve">
<style type="text/css">
	.st0{fill:#00524D;}
	.st1{fill:#FFFFFF;}
</style>
<g>
	<path class="st0" d="M299.5,549.9l-3.9,0.8l-16,16c51.2-10.8,124.9-17.7,206.8-17.7c82,0,155.7,6.8,206.8,17.7l17.2-17.2
		c-52.6-11-127.1-17.3-204.6-17.3C427.4,532.3,352.2,538.8,299.5,549.9"/>
	<path class="st0" d="M295.6,550.8l0.8-3.9c11.2-52.8,17.6-128.1,17.6-206.5c0-77.6-6.3-152-17.2-204.7l-17.2,17.2
		c10.8,51.2,17.6,124.9,17.6,207c0,82-6.8,155.7-17.6,206.9L295.6,550.8z"/>
	<path class="st0" d="M562.3,413.5c-16,10.6-31.8,23.2-45.1,34.6c7.5,6.9,15.1,14.3,22.6,22.4l0.7-0.7h1.5l0.3,1l1.1-1.6
		c-0.7-1.7-0.1-3.9,1.5-5.3c2-1.8,4.9-1.8,6.6,0c1.6,1.8,1.2,4.7-0.8,6.5c-1.3,1.2-3,1.6-4.4,1.2c-1,1.6-0.4,3.2-0.4,3.2
		c2,4.4,10.6,8.4,17.4,8.3c5.2,0,8.7-1.7,14-6.9c6-6.1,11.3,0.1,11.3,0.1c8.3,12.1-8.7,23-20.8,23.3c-14.7,0.3-28.1-8.8-31.5-12.9
		c-1.3-1.4-2.2-2-3.3-1.5c-0.6,0.3-1,1.3-1.2,2.3c0.2,1.6-0.5,3.2-1.8,4.4c-2,1.8-5,1.8-6.6,0c-1.6-1.8-1.3-4.8,0.8-6.6
		c1.1-0.9,2.5-1.4,3.7-1.3l0.5-0.1l-0.5-0.3v-1.5l1.7-1.7c-3.1-3-11.8-11.6-23.9-22.3c-12.1,10.8-20.8,19.3-23.9,22.3l1.7,1.7v1.5
		l-0.4,0.3l0.4,0.1c1.3,0,2.6,0.4,3.7,1.3c2.1,1.8,2.4,4.7,0.8,6.6c-1.7,1.8-4.6,1.8-6.6,0c-1.4-1.1-2-2.8-1.8-4.4
		c-0.2-1-0.6-2-1.2-2.3c-1.1-0.6-2,0-3.3,1.5c-3.4,4.1-16.8,13.2-31.4,12.9c-12.1-0.2-29.2-11.2-20.8-23.3c0,0,5.3-6.1,11.3-0.1
		c5.3,5.2,8.8,6.9,14.1,6.9c6.7,0.1,15.3-3.9,17.3-8.3c0,0,0.6-1.6-0.4-3.2c-1.5,0.4-3.1,0-4.4-1.2c-2-1.8-2.4-4.7-0.7-6.5
		c1.6-1.9,4.5-1.9,6.6,0c1.6,1.4,2.2,3.6,1.5,5.3l1.1,1.6l0.3-1h1.5l0.7,0.7c7.5-8.1,15.1-15.5,22.6-22.4
		c-13.4-11.4-29.1-23.9-45.1-34.6c-50.1-33.3-87.8-30.1-87.8-30.1c28.3-10.6,64-0.3,80.2,8.9c11.6,6.5,36.3,21.8,64.2,45.7
		c27.9-23.9,52.6-39.2,64.2-45.7c16.2-9.2,51.8-19.5,80.1-8.9C650.1,383.4,612.4,380.3,562.3,413.5 M425.6,254.5
		c0.9-3.5,5.5-6.3,5.6-6.3l0.5-0.3v-0.6c-0.3-6.9,5.1-7.6,5.3-7.6l0.8-0.1l0-0.9c-0.2-1.1,0-1.9,0.6-2.5c1-1.3,3.3-1.9,6.4-1.9
		c2,0,3.8,0.3,3.8,0.3l1.3,0.2l-0.4-1.3c-0.2-0.9-0.2-1.5,0.1-1.9c0.3-0.5,1.1-0.7,2.3-0.7c3.7,0,9.2,2.3,9.2,2.4l1.3,0.5l-0.2-1.5
		c-0.1-0.9,0-1.5,0.4-2c0.5-0.6,1.5-0.9,3-0.9c3.3,0,7.5,1.6,7.6,1.6l0.4,0.2c1.2,0.7,3,1.3,5.5,1.3c0.3,1.7,1.6,5,7.5,7.9l0.2,0
		c0,0,3.1,0.7,6.9,1.8c2.2,0.7,4.7,1.5,6.9,2.3l0.1,0.1l-2.2,0.4c-6.9,1.5-14.9,4.6-15.9,5c-1.1,0.2-2.1,0.2-3.1,0.2
		c-6.2,0-7.4-3-7.5-3l-0.3-1l-0.9,0.6c-2.4,1.7-4.6,2.6-6.5,2.6h-0.2l-0.9-0.1l-0.9-0.2c-1-0.4-1.5-0.9-1.5-1l-0.6-0.7l-0.6,0.5
		c-2.3,2-4.8,3-7.3,3c-2.3,0-3.9-0.9-3.9-0.9l-0.5-0.3l-0.4,0.4c-5.2,4.2-10.8,5.8-10.8,5.8l-0.2,0.1l-0.2,0.2
		c-0.9,1.1-3.2,1.7-6.5,1.7c-1.7,0-3.2-0.2-3.9-0.2C425.5,256.5,425.3,255.5,425.6,254.5 M443.7,215.2c1.6-1.9,5.1-2,6.1-2h0.4
		l0.5,0l0.2-0.5c1.2-2.3,2.7-3.5,4.7-3.5c1.2,0,2.1,0.5,2.1,0.5l0.8,0.4l0.4-0.9c0.4-1.1,1.1-1.6,2.2-1.6c2.9,0,7,3.7,7.2,3.8l1,0.9
		l0.4-1.4c0.3-1.3,0.8-1.3,1-1.3c1.8,0,5.5,4.1,7.3,6.7l0.9,1.2l0.6-1.4c0.4-1.1,1-1.2,1.5-1.2l0.2,0c0.9,1.1,2.2,2.2,4,3
		c0,1.5,0.5,4.4,4.8,6.6c-0.3,1.5-0.3,4.5,3.2,9l0.1,0.2c0.1,0,4.7,3.8,8.3,7.6l2,2.2l0.1,0.2l0,0.2c-1.3-0.7-2.9-1.3-4.5-1.9
		c-5.3-1.9-11.3-3.3-12.2-3.5c-6.3-3.1-6.5-6.3-6.5-6.8v-0.1l0.2-0.8v-0.3l-0.6,0l-0.4,0c-1.1,0-2,0-2.9-0.2l-0.8-0.2l-1.9-0.8
		l-0.8-0.6c-1-1-1.1-1.9-1.2-2L472,226l-0.7,0.1l-1.7,0.1c-5,0-7-3.7-7.1-3.8l-0.3-0.5l-0.6,0.1c-0.9,0-1.9,0.1-2.8,0.1
		c-4.2,0-7.3-1-7.3-1l-0.2-0.1l-0.2,0.1l-0.6,0.1c-2.2,0-5.9-2.6-7.4-3.9C442.9,216.4,443.2,215.7,443.7,215.2 M470.1,197.2
		c2,0,4.2,1.3,4.2,1.3l0.5,0.3l0.5-0.3c0.9-0.8,2-1.2,2.9-1.2c1.9,0,3.1,1.6,3.1,1.6l0.5,0.7l0.7-0.6l1.2-0.5c2,0,4.4,4.3,5,5.9
		l0.6,1.3l0.9-1.1l0.8-0.6c1.1,0,2.8,4.1,3.6,8l0.3,1.5l1.1-1l0.9-0.5c1.5,8.5,5.2,21.7,7.3,29l0.3,1.1l-1.7-1.9l-2-2
		c-2.9-2.8-5.7-5.2-6.3-5.6c-4.1-5.2-2.7-7.7-2.7-7.7l0.6-0.8l0-0.1l-0.2-0.1l-0.7-0.4c-1.5-0.7-2.4-1.4-3.1-2.1
		c-1.2-1.2-1.5-2.4-1.5-3v-0.6l0.2-0.6l0.1-0.3l-0.5-0.2l-0.2-0.1c-2.2-0.7-3.5-2-4.3-3.1c-1-1.5-1.2-2.9-1.2-3.1l0-0.6l-0.5-0.2
		c-4.4-1.6-7.4-4.6-7.5-4.6l-0.2-0.2l-0.2-0.1c-1.6-0.3-3.7-3.7-4.8-6C468.1,197.7,468.9,197.2,470.1,197.2 M497.9,205.6h0.6l-0.1-1
		c-0.6-6.4-0.2-11.7,1.1-13.2l0.6-0.3l0.6,0.2l1,0.5l0.2-1.2c1-5,2.8-7.9,3.9-9.3c1.1,1.4,2.9,4.3,3.9,9.3l0.2,1.2l0.9-0.5l0.7-0.2
		l0.6,0.3c1.2,1.5,1.7,6.8,1.1,13.2l-0.1,1h0.7c0.2,0.7,0,2.4-0.5,4.9l-0.2,1.4l-0.5,2.4c-1.3,6-3.5,14.4-5.9,22.8l-0.2,0.5
		l-0.7,2.5l-0.1,0.3l0-0.3l-0.7-2.5l-0.2-0.5c-2.4-8.4-4.5-16.8-5.8-22.8l-0.5-2.4l-0.2-1.4C497.9,208,497.7,206.3,497.9,205.6
		 M515.7,212.4l1.1,1l0.3-1.5c0.8-3.8,2.5-8,3.8-8l0.6,0.6l0.9,1.1l0.5-1.3c0.6-1.6,3-5.9,5-5.9l1.2,0.5l0.7,0.6l0.6-0.7
		c0,0,1.2-1.6,3.1-1.6c0.9,0,1.9,0.4,3,1.2l0.4,0.3l0.4-0.3c0,0,2.2-1.3,4.3-1.3c1.2,0,2.1,0.5,2.5,1.4c-1.1,2.3-3.2,5.7-4.8,6
		l-0.2,0.1l-0.2,0.2c0,0-3.1,3-7.4,4.6l-0.5,0.2l0,0.6c0,0-0.1,1.5-1.2,3.1c-0.8,1.2-2.1,2.4-4.2,3.1l-0.2,0.1l-0.5,0.2l0.1,0.3
		l0.1,0.6l0.1,0.6c-0.1,0.7-0.3,1.8-1.5,3c-0.7,0.7-1.7,1.4-3.1,2.1l-0.7,0.4l-0.2,0.1v0.1l0.5,0.8c0,0,1.3,2.6-2.7,7.7
		c-0.6,0.4-3.4,2.8-6.4,5.6l-2,2l-1.7,1.9l0.3-1.1c2.2-7.3,5.9-20.5,7.4-29L515.7,212.4z M552.7,209.3l0.4,0.9l0.8-0.4
		c0,0,0.9-0.5,2.1-0.5c1.9,0,3.5,1.2,4.6,3.5l0.3,0.5l0.5,0h0.4c1,0,4.5,0.1,6.1,2c0.5,0.5,0.7,1.3,0.8,2.1
		c-1.5,1.3-5.2,3.9-7.5,3.9l-0.6-0.1l-0.2-0.1l-0.2,0.1c0,0-3.1,1-7.3,1c-0.9,0-2-0.1-2.8-0.1l-0.6-0.1l-0.2,0.5
		c0,0.1-2.1,3.8-7.2,3.8l-1.7-0.1l-0.8-0.1l-0.2,0.9c0,0.1-0.2,1-1.1,2l-0.8,0.6l-2,0.8l-0.7,0.2c-0.8,0.1-1.8,0.2-2.9,0.2h-0.5
		l-0.5,0v0.2l0.1,0.8v0.1c0,0.6-0.2,3.8-6.5,6.8c-0.9,0.2-6.9,1.5-12.2,3.5c-1.7,0.6-3.2,1.2-4.6,1.9l0.1-0.2l0.1-0.2l2-2.2
		c3.6-3.8,8.3-7.5,8.3-7.6l0.1-0.2c3.6-4.5,3.6-7.5,3.3-9c4.3-2.3,4.8-5.2,4.8-6.6c1.9-0.8,3.2-1.9,4.1-3l0.2,0c0.4,0,1,0.1,1.5,1.2
		l0.6,1.4l0.9-1.2c1.8-2.6,5.5-6.7,7.3-6.7c0.2,0,0.7,0,1,1.3l0.4,1.4l1-0.9c1.2-1.1,4.6-3.8,7.1-3.8
		C551.6,207.7,552.3,208.2,552.7,209.3 M546.5,270.9L546,270l-0.7,0.6c-0.1,0-0.5,0.4-1.3,0.4c-0.8,0-2.1-0.3-3.8-1.9l-0.7-0.7
		c-0.8-0.9-1.7-2.2-2.7-3.9l-0.7-1.1l-0.4,0.6l-0.3,0.5c-0.1,0.1-0.7,1.2-2.7,1.2c-1.9,0-4.4-1-7.2-3.1c-0.8-0.9-7.5-8.3-13.4-13.3
		c-0.9-0.7-1.7-1.4-2.4-2l-1.6-1.1l0.2-0.1l1.3,0.2c7.4,0.9,19,5.4,19.1,5.5l0.2,0c1.2,0.2,2.3,0.2,3.4,0.2c5.3,0,7.6-2,8.5-3.2
		c2.4,1.5,4.6,2.4,6.9,2.4l0.3-0.1l-0.2,1.3l-0.4,1.2h1.2c2.4,0,9.1,0.6,10.6,3.3c0.5,0.8,0.4,1.8-0.2,2.9l-0.5,1l1.1,0.3
		c0,0,6.5,2,8.5,6.1c0.7,1.3,0.8,2.7,0.3,4.1L568,272l0.5,0.4c0.2,0.1,5.1,3.6,3.2,11.6l-0.1,0.4l0.2,0.4c0,0.1,5.9,8.8,2.6,13.2
		c-2.5-0.9-7.8-3.4-9-6.6l0-0.2l-0.2-0.2c0-0.1-4.6-4.4-8.4-11.8l-0.3-0.6l-0.6,0.1l-0.5,0C553.9,278.7,549.8,277.9,546.5,270.9
		 M478.9,381.4H502l-4.9-21.3l3.8-3.7l-4.9-19.2l3.9-1.9l-5.1-21l4.6-3.3l-4-17.9l4.6-2.5l-2.9-15.9l3.8-2.5l-0.6-17.2v-0.1
		c0.2-0.7,1.9-5.6,5.5-8.6c3.9,3.3,5.5,8.6,5.5,8.6l-0.6,17.2l3.8,2.5l-2.9,15.9l4.6,2.5l-4,17.9l4.6,3.3l-5,21l3.8,1.9l-4.9,19.2
		l3.8,3.7l-4.3,21.2h22.6c0,0,2.9,1.3,2,3.5c-1,2.2-12.8,14-13.8,13.5c-1-0.6-1-5.1-1.6-5.9c-0.5-0.5-5.5,4.8-7.7,6
		c0,0-2.4-2.8-5.9-5c-3.5,2.2-7.3,5-7.3,5c-2.2-1.3-5.7-6.5-6.1-5.9c-0.7,0.8-0.7,5.3-1.6,5.9c-1,0.6-12.8-11.2-13.8-13.5
		C475.9,382.7,478.9,381.4,478.9,381.4 M439.9,283.9c-1.9-8,3-11.4,3.2-11.6l0.5-0.4l-0.2-0.7c-0.5-1.5-0.4-2.8,0.2-4.1
		c2-4,8.6-6.1,8.6-6.1l0.9-0.3l-0.4-1c-0.5-1.2-0.6-2.1-0.1-2.9c1.5-2.7,8.1-3.3,10.6-3.3h1.2l-0.4-1.2l-0.2-1.3l0.5,0.1
		c2,0,4.3-0.8,6.7-2.4c0.9,1.2,3.1,3.2,8.5,3.2c1.1,0,2.2,0,3.4-0.2l0.2,0c0.2,0,11.7-4.6,19.1-5.5l1.3-0.2l0.2,0.1l-1.6,1.1l-2.4,2
		c-6,5-12.6,12.4-13.4,13.3c-2.9,2-5.2,3.1-7.2,3.1s-2.6-1.1-2.7-1.1l-0.3-0.6l-0.4-0.7l-0.7,1.2c-1,1.6-1.9,2.9-2.8,3.9l-0.7,0.7
		c-1.6,1.6-3,1.9-3.7,1.9l-1.3-0.4l-0.8-0.6l-0.4,0.9c-3.3,7-7.4,7.8-8.9,7.8l-0.5,0l-0.6-0.1l-0.2,0.6c-3.8,7.4-8.4,11.7-8.5,11.8
		l-0.2,0.2l-0.1,0.2c-1.1,3.2-6.5,5.7-9,6.6c-3.3-4.4,2.6-13.1,2.6-13.2l0.2-0.4L439.9,283.9z M466.2,299.7
		c-4.2-3.5-1.7-7.6-1.6-7.8l0.5-0.8l-0.7-0.5l-1.1-1.9c-0.2-2.7,3.3-6.5,4.6-7.8l1-0.9l-1.2-0.6l-1-1.1c-0.1-1.8,4.2-5.2,7.2-7
		l1.3-0.7l-1.2-0.8l-0.4-0.3c0.7-0.8,1.5-1.8,2.2-3c0.7,0.5,1.7,1.1,3.3,1.1c2.3,0,5.1-1.2,8.2-3.4l0.2-0.2
		c0.2-0.1,8.3-9.3,14.6-14.3c-3.2,5.8-6.2,14.3-6.5,15.5c-4.1,6.8-7.3,5.8-7.3,5.8l-0.9-0.3l-0.2,1.1c-0.9,7.4-4.4,7.6-4.6,7.6h-0.8
		v0.9c-0.2,6.9-4.6,8.8-4.8,8.9l-0.5,0.2l0,0.6c-0.3,6-2.4,10.7-2.4,10.8l0,0.3v0.2c0.2,2.1-2.7,5.9-4.8,8l-1.8-1.3
		c-1.6-2.5-0.7-7.2-0.7-7.3l0.1-0.6L466.2,299.7z M547,291.9c0.1,0.2,2.6,4.3-1.6,7.8l-0.4,0.4l0.1,0.6c0.2,1.3,0.6,5.2-0.7,7.3
		l-1.9,1.3c-2.1-2.1-5-5.9-4.8-8l0-0.2l-0.2-0.3c0,0-2-4.8-2.3-10.8l-0.1-0.6l-0.5-0.2c-0.2-0.1-4.6-2-4.8-8.9v-0.9h-0.8
		c-0.2,0-3.7-0.2-4.6-7.6l-0.2-1.1l-1,0.3c0,0-3.1,1.1-7.3-5.8c-0.4-1.1-3.3-9.7-6.5-15.5c6.3,5,14.5,14.2,14.6,14.3l0.2,0.2
		c3.1,2.2,5.9,3.4,8.2,3.4c1.5,0,2.6-0.6,3.2-1.1c0.8,1.2,1.5,2.2,2.2,3l-0.4,0.3l-1.1,0.8l1.2,0.7c3.1,1.8,7.4,5.2,7.3,7l-1.1,1.1
		l-1.2,0.6l1,0.9c1.3,1.3,4.7,5.1,4.6,7.8l-1.1,1.9l-0.7,0.5L547,291.9z M573.9,238.8l-0.1,0.9l0.9,0.1c0.2,0,5.5,0.7,5.3,7.6v0.6
		l0.5,0.3c0,0,4.7,2.8,5.5,6.3c0.3,1,0.1,2-0.4,2.9c-0.7,0.1-2.2,0.2-3.9,0.2c-3.3,0-5.6-0.6-6.5-1.7l-0.2-0.2l-0.2-0.1
		c0,0-5.6-1.6-10.7-5.8l-0.4-0.4l-0.5,0.3c0,0-1.5,0.9-3.9,0.9c-2.5,0-4.9-1-7.3-3l-0.6-0.5l-0.5,0.7c0,0-0.5,0.6-1.5,0.9l-0.8,0.2
		l-0.9,0.1h-0.2c-1.9,0-4.1-0.8-6.5-2.6l-0.9-0.5l-0.4,1c0,0-1.3,3-7.4,3c-0.9,0-2-0.1-3.1-0.2c-1.1-0.4-9-3.4-15.9-5l-2.3-0.4
		l0.2-0.1c2.2-0.9,4.7-1.6,6.9-2.3c3.8-1,7-1.8,7-1.8l0.2,0c6-2.9,7.3-6.2,7.5-7.9c2.5,0,4.3-0.6,5.5-1.3l0.3-0.2
		c0.1,0,4.3-1.6,7.6-1.6c1.4,0,2.5,0.3,3,0.9c0.4,0.5,0.5,1.1,0.4,2l-0.1,1.5l1.3-0.5c0,0,5.6-2.4,9.2-2.4c1.2,0,2,0.3,2.4,0.7
		c0.2,0.4,0.3,1,0,1.9l-0.4,1.3l1.3-0.2c0,0,1.7-0.3,3.7-0.3c3.1,0,5.4,0.7,6.4,1.9C573.9,236.9,574.1,237.7,573.9,238.8
		 M709.3,136.8c-52.8,10.8-126.7,16.9-203.5,16.9c-76.7,0-150.6-6.1-203.5-16.9c10.8,52.9,16.9,126.8,16.9,203.6
		c0,76.9-6.2,150.7-16.9,203.6c52.9-10.8,126.8-16.9,203.5-16.9c76.9,0,150.7,6.1,203.5,16.9c-10.7-52.8-16.9-126.7-16.9-203.6
		C692.4,263.6,698.6,189.7,709.3,136.8"/>
	<path class="st1" d="M573.9,238.8l-0.1,0.9l0.9,0.1c0.2,0,5.6,0.7,5.3,7.6v0.6l0.5,0.3c0,0,4.8,2.8,5.5,6.3c0.2,1,0.1,2-0.4,2.9
		c-0.7,0.1-2.2,0.2-3.9,0.2c-3.3,0-5.7-0.5-6.6-1.6l-0.2-0.2l-0.2,0c0,0-5.6-1.6-10.7-5.9l-0.4-0.4l-0.5,0.3c0,0-1.5,0.9-3.9,0.9
		c-2.5,0-4.9-1-7.3-3l-0.6-0.5l-0.6,0.7c0,0-0.5,0.6-1.5,1l-0.8,0.2l-0.9,0.1h-0.2c-1.9,0-4.1-0.8-6.4-2.6l-0.9-0.6l-0.4,1
		c0,0-1.3,3-7.5,3c-0.9,0-2-0.1-3.1-0.2c-1-0.4-9-3.5-15.9-5l-2.3-0.4l0.2-0.1c2.2-0.9,4.7-1.6,6.9-2.3c3.8-1,7-1.8,7-1.8l0.2,0
		c6-2.9,7.3-6.2,7.5-7.9c2.5,0,4.3-0.6,5.5-1.3l0.3-0.2c0.1,0,4.3-1.6,7.6-1.6c1.5,0,2.5,0.4,3,0.9c0.4,0.5,0.5,1.1,0.4,2l-0.2,1.5
		l1.3-0.6c0,0,5.6-2.4,9.2-2.4c1.2,0,2,0.3,2.4,0.7c0.2,0.4,0.3,1,0,1.9l-0.4,1.3l1.3-0.2c0,0,1.7-0.3,3.7-0.3
		c3.1,0,5.4,0.7,6.4,1.9C573.9,236.9,574.1,237.7,573.9,238.8"/>
	<path class="st1" d="M547,291.9c0.1,0.2,2.6,4.2-1.6,7.8L545,300l0.1,0.6c0.3,1.3,0.7,5.2-0.7,7.2l-1.8,1.3c-2.1-2.2-5-5.9-4.8-8
		l0-0.3l-0.2-0.2c0,0-2.1-4.8-2.3-10.8l-0.1-0.6l-0.5-0.2c-0.2-0.1-4.6-2.1-4.8-9v-0.9l-0.8,0c-0.2,0-3.7-0.2-4.6-7.6l-0.2-1.1
		l-1,0.3c0,0-3.1,1.1-7.3-5.9c-0.4-1.1-3.3-9.6-6.5-15.4c6.3,5,14.5,14.2,14.6,14.2l0.2,0.2c3.1,2.2,5.9,3.4,8.2,3.4
		c1.6,0,2.6-0.6,3.3-1.1c0.8,1.2,1.5,2.2,2.2,3l-0.4,0.4l-1.1,0.8l1.2,0.7c3.1,1.8,7.4,5.2,7.3,7l-1,1.1l-1.2,0.6l1.1,0.9
		c1.3,1.3,4.7,5.1,4.6,7.8l-1.1,1.9l-0.7,0.5L547,291.9z"/>
	<path class="st1" d="M466.2,299.7c-4.2-3.5-1.7-7.6-1.6-7.8l0.5-0.8l-0.7-0.5l-1.1-1.9c-0.2-2.7,3.3-6.5,4.6-7.8l1-0.9l-1.2-0.6
		l-1-1.1c-0.1-1.8,4.2-5.2,7.2-7l1.3-0.7l-1.2-0.8l-0.4-0.4c0.7-0.8,1.4-1.8,2.2-3c0.7,0.5,1.7,1.1,3.3,1.1c2.3,0,5-1.2,8.2-3.4
		l0.1-0.2c0.2-0.1,8.3-9.3,14.6-14.2c-3.2,5.8-6.2,14.3-6.5,15.4c-4.1,6.8-7.3,5.9-7.3,5.9l-0.9-0.4l-0.2,1.1
		c-0.9,7.4-4.4,7.6-4.6,7.6h-0.8v0.9c-0.1,6.9-4.6,8.9-4.8,9l-0.5,0.2l0,0.6c-0.3,6-2.4,10.8-2.4,10.8l0,0.2v0.3
		c0.2,2.1-2.7,5.9-4.8,8l-1.8-1.3c-1.6-2.4-0.7-7.2-0.7-7.2l0.1-0.6L466.2,299.7z"/>
	<path class="st1" d="M439.9,283.9c-1.8-8,3-11.4,3.2-11.6l0.5-0.4l-0.2-0.7c-0.5-1.5-0.3-2.8,0.2-4.1c2-4,8.6-6.1,8.6-6.1l0.9-0.3
		l-0.5-1c-0.5-1.2-0.5-2.2-0.1-3c1.5-2.7,8.1-3.3,10.6-3.3h1.2l-0.4-1.3l-0.2-1.3l0.5,0.1c2,0,4.2-0.8,6.6-2.4
		c0.9,1.2,3.2,3.2,8.5,3.2c1,0,2.1-0.1,3.3-0.2l0.2,0c0.1,0,11.7-4.6,19.1-5.5l1.3-0.2l0.2,0.1l-1.6,1.1l-2.5,1.9
		c-6,5-12.6,12.4-13.4,13.4c-2.9,2-5.3,3-7.2,3c-2,0-2.7-1.1-2.7-1.1l-0.3-0.5l-0.4-0.7l-0.7,1.2c-1,1.6-1.9,2.9-2.7,3.9l-0.7,0.8
		c-1.7,1.6-3,1.9-3.7,1.9l-1.3-0.3l-0.8-0.7l-0.4,1c-3.3,7-7.4,7.8-9,7.8l-0.5,0l-0.6-0.1l-0.2,0.5c-3.8,7.4-8.4,11.8-8.5,11.8
		l-0.2,0.2l-0.1,0.2c-1.1,3.2-6.5,5.7-9,6.6c-3.3-4.4,2.6-13.1,2.6-13.2l0.3-0.4L439.9,283.9z"/>
	<path class="st1" d="M478.9,381.4H502l-4.9-21.2l3.8-3.8l-4.9-19.2l3.9-1.9l-5.1-21l4.6-3.3l-4.1-17.9l4.6-2.5l-2.9-15.9l3.8-2.5
		l-0.6-17.2v-0.1c0.2-0.7,1.9-5.5,5.5-8.5c3.9,3.3,5.5,8.6,5.5,8.6l-0.6,17.2l3.8,2.5l-2.9,15.9l4.6,2.5l-4,17.9l4.6,3.3l-5,21
		l3.8,1.9l-4.9,19.2l3.8,3.8l-4.3,21.1h22.6c0,0,3,1.3,2,3.5c-1,2.2-12.8,14-13.8,13.5c-1-0.6-1-5.1-1.6-5.9c-0.5-0.6-5.5,4.8-7.7,6
		c0,0-2.4-2.8-5.9-5c-3.5,2.2-7.3,5-7.3,5c-2.2-1.3-5.7-6.5-6.1-5.9c-0.7,0.8-0.7,5.3-1.6,5.9c-1,0.6-12.8-11.2-13.8-13.5
		C475.9,382.7,478.9,381.4,478.9,381.4"/>
	<path class="st1" d="M546.5,270.9l-0.5-0.9l-0.8,0.6c0,0-0.5,0.4-1.3,0.4c-0.8,0-2.1-0.3-3.7-1.9l-0.7-0.7
		c-0.8-0.9-1.7-2.2-2.7-3.9l-0.7-1.1l-0.4,0.6l-0.3,0.5c0,0-0.7,1.1-2.7,1.1c-1.9,0-4.4-1-7.2-3.1c-0.8-0.9-7.5-8.3-13.4-13.3
		c-0.9-0.7-1.7-1.4-2.5-2l-1.6-1.1l0.2-0.1l1.3,0.2c7.4,0.9,19,5.4,19.1,5.5l0.1,0c1.2,0.2,2.4,0.2,3.4,0.2c5.3,0,7.6-2,8.5-3.2
		c2.4,1.5,4.6,2.4,6.9,2.4l0.3-0.1l-0.3,1.3l-0.4,1.2h1.2c2.4,0,9,0.6,10.5,3.3c0.5,0.8,0.4,1.8-0.2,3l-0.4,1l1,0.3
		c0,0,6.5,2,8.5,6.1c0.7,1.3,0.7,2.6,0.3,4.1L568,272l0.5,0.4c0.3,0.1,5.1,3.6,3.2,11.6l-0.1,0.4l0.3,0.4c0,0.1,5.9,8.8,2.6,13.2
		c-2.5-0.9-7.9-3.4-9-6.6l0-0.2l-0.2-0.2c0,0-4.7-4.4-8.4-11.8l-0.3-0.6l-0.6,0.1h-0.5C553.9,278.7,549.9,277.9,546.5,270.9"/>
	<path class="st1" d="M552.7,209.3l0.4,0.9l0.8-0.4c0,0,0.9-0.5,2.1-0.5c1.9,0,3.5,1.2,4.6,3.4l0.2,0.6l0.6,0h0.4c1,0,4.5,0.1,6.1,2
		c0.5,0.6,0.8,1.3,0.8,2.1c-1.6,1.3-5.2,3.9-7.5,3.9l-0.6-0.1l-0.2-0.1l-0.2,0.1c0,0-3.1,1-7.3,1c-0.9,0-2-0.1-2.9-0.2l-0.5-0.1
		l-0.3,0.5c0,0.1-2.1,3.8-7.1,3.8l-1.7-0.2l-0.8-0.1l-0.2,0.9c0,0.1-0.2,1-1.1,2l-0.8,0.6l-1.9,0.8l-0.7,0.2
		c-0.8,0.1-1.8,0.2-2.9,0.2h-0.5h-0.5v0.2l0.1,0.9v0.1c0,0.6-0.2,3.8-6.4,6.8c-0.9,0.2-6.9,1.5-12.2,3.5c-1.6,0.6-3.2,1.2-4.6,1.9
		l0.1-0.1l0.1-0.2l2-2.2c3.6-3.8,8.3-7.5,8.3-7.5l0.1-0.2c3.6-4.5,3.6-7.6,3.3-9c4.3-2.3,4.8-5.2,4.8-6.7c1.8-0.7,3.1-1.9,4-2.9
		l0.2,0c0.4,0,1,0.1,1.5,1.2l0.6,1.4l0.8-1.2c1.8-2.6,5.5-6.7,7.4-6.7c0.2,0,0.7,0,1,1.3l0.4,1.4l1-0.9c1.2-1.1,4.6-3.8,7.1-3.8
		C551.5,207.7,552.3,208.2,552.7,209.3"/>
	<path class="st1" d="M515.7,212.4l1.1,1l0.3-1.5c0.8-3.8,2.4-8,3.8-8l0.5,0.6l0.9,1.1l0.5-1.3c0.6-1.5,3-5.9,5-5.9l1.2,0.6l0.7,0.6
		l0.5-0.7c0,0,1.2-1.6,3.1-1.6c1,0,2,0.4,3,1.2l0.4,0.4l0.4-0.3c0,0,2.2-1.3,4.2-1.3c1.3,0,2.1,0.5,2.6,1.5c-1.1,2.3-3.2,5.7-4.8,6
		l-0.2,0l-0.2,0.2c0,0.1-3.1,3-7.5,4.7l-0.5,0.2l0,0.6c0,0-0.1,1.5-1.2,3.1c-0.8,1.1-2.1,2.4-4.2,3.1l-0.3,0.1l-0.5,0.2l0.1,0.3
		l0.1,0.6l0,0.5c0,0.7-0.3,1.8-1.4,3c-0.7,0.7-1.7,1.5-3.1,2.2l-0.7,0.4l-0.2,0.1l0,0.1l0.5,0.8c0,0,1.3,2.6-2.7,7.7
		c-0.5,0.4-3.4,2.8-6.4,5.6l-2,2l-1.8,1.9l0.3-1c2.2-7.3,5.9-20.5,7.4-29L515.7,212.4z"/>
	<path class="st1" d="M497.9,205.6h0.6l-0.1-1c-0.6-6.4-0.2-11.7,1.1-13.2l0.6-0.4l0.6,0.2l1,0.6l0.2-1.2c1-5,2.8-7.9,3.9-9.3
		c1.1,1.4,2.9,4.3,3.9,9.3l0.2,1.2l0.9-0.6l0.7-0.2l0.6,0.4c1.2,1.5,1.7,6.8,1.1,13.2l-0.1,1h0.7c0.2,0.7,0,2.4-0.5,4.9l-0.2,1.4
		l-0.5,2.4c-1.3,6-3.5,14.4-5.9,22.8l-0.2,0.5l-0.7,2.5l-0.1,0.3l0-0.3l-0.7-2.5l-0.2-0.5c-2.4-8.5-4.5-16.8-5.8-22.8l-0.5-2.4
		l-0.2-1.4C497.9,208.1,497.7,206.3,497.9,205.6"/>
	<path class="st1" d="M470.1,197.2c2,0,4.2,1.3,4.2,1.3l0.5,0.3l0.4-0.4c1-0.7,2-1.2,2.9-1.2c1.9,0,3.1,1.6,3.1,1.6l0.5,0.7l0.7-0.6
		l1.2-0.5c2,0,4.4,4.3,5,5.9l0.6,1.3l0.8-1.1l0.9-0.6c1.1,0,2.8,4.1,3.6,8l0.3,1.5l1.1-1l0.9-0.5c1.5,8.5,5.2,21.7,7.3,28.9l0.3,1.1
		l-1.8-1.9l-2-2c-2.9-2.8-5.7-5.2-6.3-5.6c-4.1-5.2-2.7-7.7-2.7-7.7l0.5-0.8l0-0.1l-0.2-0.1l-0.7-0.4c-1.4-0.7-2.4-1.4-3.1-2.1
		c-1.2-1.2-1.4-2.4-1.4-3v-0.5l0.2-0.6l0.1-0.3l-0.5-0.2l-0.2-0.1c-2.2-0.7-3.5-2-4.3-3.1c-1-1.5-1.2-2.9-1.2-3.1l-0.1-0.6l-0.5-0.2
		c-4.4-1.6-7.4-4.6-7.5-4.6l-0.2-0.2l-0.2-0.1c-1.6-0.3-3.7-3.7-4.8-6C468.1,197.7,468.9,197.2,470.1,197.2"/>
	<path class="st1" d="M443.7,215.2c1.6-1.9,5.1-2,6.1-2h0.4l0.6,0l0.2-0.5c1.2-2.3,2.8-3.5,4.7-3.5c1.2,0,2.1,0.5,2.1,0.5l0.8,0.4
		l0.3-0.9c0.4-1.1,1.1-1.6,2.2-1.6c3,0,7,3.7,7.2,3.8l1,0.9l0.3-1.4c0.3-1.3,0.8-1.3,1-1.3c1.8,0,5.5,4.1,7.3,6.7l0.9,1.2l0.6-1.4
		c0.4-1.1,1-1.2,1.5-1.2l0.2,0c0.9,1.1,2.2,2.2,4,3c0,1.5,0.6,4.4,4.8,6.6c-0.3,1.5-0.3,4.5,3.2,9l0.1,0.1c0.1,0,4.7,3.8,8.3,7.6
		l2,2.2l0.1,0.2l0,0.2c-1.3-0.7-2.9-1.3-4.5-1.9c-5.3-1.9-11.3-3.3-12.2-3.5c-6.3-3.1-6.5-6.3-6.5-6.8v-0.1l0.2-0.8v-0.3l-0.6,0
		l-0.4,0c-1.1,0-2,0-2.9-0.2l-0.8-0.2l-1.9-0.9l-0.8-0.5c-1-1-1.1-1.9-1.2-2L472,226l-0.8,0.1l-1.7,0.1c-5,0-7-3.7-7.1-3.8l-0.3-0.5
		l-0.5,0.1c-0.9,0.1-1.9,0.2-2.9,0.2c-4.2,0-7.3-1-7.3-1.1l-0.2-0.1l-0.2,0.1l-0.6,0.1c-2.2,0-5.9-2.6-7.4-3.9
		C442.9,216.4,443.2,215.7,443.7,215.2"/>
	<path class="st1" d="M425.6,254.5c0.8-3.5,5.5-6.2,5.6-6.3l0.5-0.3v-0.5c-0.3-6.9,5.1-7.6,5.3-7.6l0.8-0.1l-0.1-0.9
		c-0.1-1.1,0.1-1.9,0.6-2.5c1-1.2,3.3-1.9,6.4-1.9c2,0,3.7,0.3,3.7,0.3l1.3,0.2l-0.4-1.4c-0.2-0.9-0.2-1.5,0.1-1.8
		c0.3-0.5,1.1-0.7,2.3-0.7c3.7,0,9.2,2.3,9.2,2.3l1.3,0.6l-0.2-1.5c-0.1-0.9,0-1.5,0.4-2c0.6-0.6,1.6-0.9,3-0.9
		c3.3,0,7.5,1.6,7.5,1.6l0.4,0.2c1.2,0.8,3,1.3,5.5,1.3c0.3,1.7,1.6,5,7.6,7.9l0.2,0c0,0,3.1,0.7,6.9,1.8c2.2,0.7,4.7,1.5,6.9,2.3
		l0.1,0.1l-2.2,0.4c-6.9,1.5-14.9,4.6-15.9,4.9c-1.1,0.2-2.1,0.2-3.1,0.2c-6.2,0-7.5-3-7.5-3l-0.3-1l-0.9,0.6
		c-2.4,1.7-4.6,2.5-6.5,2.5h-0.2l-0.9-0.1l-0.9-0.2c-1-0.4-1.5-0.9-1.5-1l-0.5-0.7l-0.6,0.6c-2.3,2-4.8,3.1-7.3,3.1
		c-2.3,0-3.9-0.9-3.9-0.9l-0.5-0.3l-0.4,0.4c-5.1,4.2-10.7,5.8-10.7,5.8l-0.2,0.1l-0.2,0.2c-0.9,1.1-3.2,1.6-6.5,1.6
		c-1.7,0-3.2-0.2-3.9-0.2C425.5,256.5,425.3,255.5,425.6,254.5"/>
	<path class="st1" d="M562.4,413.5c-16,10.7-31.8,23.2-45.1,34.6c7.5,6.9,15.1,14.3,22.6,22.4l0.7-0.7h1.5l0.3,1l1.1-1.6
		c-0.7-1.7-0.1-3.9,1.5-5.3c2.1-1.8,5-1.8,6.6,0c1.6,1.8,1.2,4.8-0.8,6.5c-1.3,1.2-3,1.6-4.4,1.2c-1,1.6-0.4,3.2-0.4,3.2
		c2,4.4,10.6,8.4,17.4,8.3c5.1,0,8.8-1.7,14-6.9c6-6.1,11.3,0.1,11.3,0.1c8.3,12.1-8.7,23-20.8,23.3c-14.7,0.3-28.1-8.8-31.5-12.9
		c-1.3-1.5-2.2-2-3.3-1.5c-0.6,0.3-1,1.3-1.2,2.3c0.2,1.6-0.4,3.2-1.7,4.4c-2,1.8-5,1.8-6.6,0c-1.6-1.8-1.3-4.7,0.8-6.5
		c1.1-0.9,2.4-1.4,3.7-1.3l0.4-0.1l-0.5-0.3v-1.5l1.7-1.6c-3-3-11.8-11.6-23.9-22.3c-12,10.8-20.8,19.3-23.9,22.3l1.7,1.6v1.5
		l-0.4,0.3l0.4,0.1c1.3-0.1,2.6,0.4,3.7,1.3c2,1.8,2.4,4.7,0.8,6.5c-1.6,1.8-4.6,1.8-6.6,0c-1.4-1.2-2-2.8-1.8-4.4
		c-0.2-1-0.6-2-1.3-2.3c-1.1-0.6-2,0-3.3,1.5c-3.4,4.1-16.7,13.1-31.5,12.9c-12.1-0.2-29.2-11.2-20.8-23.3c0,0,5.3-6.1,11.3-0.1
		c5.3,5.2,8.8,6.9,14,6.9c6.8,0.1,15.3-3.9,17.3-8.3c0,0,0.6-1.6-0.4-3.2c-1.5,0.4-3.1,0-4.4-1.2c-2-1.8-2.4-4.7-0.7-6.5
		c1.6-1.8,4.5-1.8,6.5,0c1.6,1.4,2.2,3.6,1.5,5.3l1.1,1.6l0.3-1h1.5l0.7,0.7c7.5-8.1,15.1-15.5,22.6-22.4
		c-13.4-11.4-29.1-23.9-45.1-34.6c-50.1-33.3-87.8-30.1-87.8-30.1c28.3-10.6,64-0.3,80.2,8.8c11.6,6.5,36.3,21.8,64.2,45.7
		c27.9-23.9,52.7-39.2,64.2-45.7c16.2-9.1,51.8-19.4,80.1-8.8C650.2,383.4,612.4,380.2,562.4,413.5"/>
	<path class="st0" d="M183.4,714.7c-0.2-4.3-4.7-9.1-13.4-14.4c-2.8,3.2-5.9,7.5-9.4,12.7c-0.6,1.3-0.9,2.6-0.9,3.8c0,4,2.3,6,7,6
		c4.2,0,8.8-1,13.6-3C182.5,718.3,183.6,716.6,183.4,714.7 M188.6,664.8l-5.8,9.6l-13.6-8.2l-4.1,7.7l-14.4-8.4l6-10.2l13.3,8.4
		l4.6-7.6L188.6,664.8z M192.8,707.3c0,2.9-1.6,7.8-4.9,14.6c-2.3,3.2-4.6,5.5-6.9,7.2c-4.4,3.4-9.5,5.5-15.6,6.2
		c-3.8,0.4-7.3,0-10.3-1.3c-3.7-1.6-5.5-4.3-5.5-8c0-5.6,4.4-14.2,13.3-25.7l11.3-14.8c1.3,1.6,3.7,3.7,7,6.2c3.7,2.7,6.1,4.5,7,5.4
		C191.3,699.9,192.8,703.3,192.8,707.3"/>
	<path class="st0" d="M248.4,729.1c0,8.7-3.5,18.1-10.5,28c-6.3,9.2-13,13.7-20,13.7c-3.5,0-9.3-1.5-17.5-4.6
		c-8.8-3.4-13.3-6.1-13.3-8.3l1-1c0.4,0,3,1,7.7,2.9c4.8,1.9,8.6,2.9,11.6,2.9c6.4,0,14-4.3,23-13c8.9-8.6,13.4-16.1,13.4-22.5
		c0-4.6-5.4-10.8-16.3-18.7c0.6-2.7,1.7-7.6,3.2-14.9c5.8,4.5,9.8,8.7,12.3,12.6C246.5,712.4,248.4,720,248.4,729.1"/>
	<path class="st0" d="M294.4,735.3h-23.7c-1.6-29.5-3.7-57.6-6.2-84.4c1.7-2.3,4.4-5.9,8-10.8l3.9,46.4c1.9,20.8,3.2,31.9,4,33.4
		l1.1,1.2c1.2,1.3,3.4,1.9,6.5,1.9h6.3V735.3z"/>
	<rect x="290.1" y="723" class="st0" width="23.9" height="12.3"/>
	<rect x="310.9" y="723" class="st0" width="24" height="12.3"/>
	<path class="st0" d="M394.3,759.2l-5.9,9.9l-13.4-8.4l6-9.5L394.3,759.2z M432.5,735.3h-33.3c-2.9,0-4.9-2.2-6-6.7
		c-0.4-1.4-0.9-4.7-1.6-10c-1.4,1.5-3.9,3.4-7.5,5.7c-3.5,2.2-6.1,4.1-7.6,5.5c-3.8,3.7-8.5,5.5-14.2,5.5h-30.2V723h30.5
		c8.9,0,18.9-4.5,29.9-13.4c-4.8-1-11.8-2.5-21.2-4.4l-6.7-1.4c-3.4,0-8,2.1-13.7,6.3l-0.2-0.5c0-1.4,0.4-3.2,1.3-5.4
		c3.9-9.2,9.5-13.7,16.7-13.7c4.1,0,10.7,1.3,19.6,4c13.5,4,23.4,6,29.5,6h4.1c3.9-0.1,5.4-0.2,4.3-0.2c-1,2.8-2.8,7.1-5.3,12.7
		c-1.1-0.1-2.5-0.2-4.4-0.2c-8.6,0-15.2,1.2-19.9,3.5c0,2.5,1,4.5,3.1,6l1.3,0.8h31.3V735.3z"/>
	<path class="st0" d="M471.6,669.5l-5.9,9.7L452,671l-4.3,7.6l-14.1-8.3l5.9-10.1l13.3,8.4l4.5-7.6L471.6,669.5z M476.4,735.3h-7
		c-1.6,0-3.3-0.6-5-1.7c-0.6-0.4-1.3-1.5-2.1-3.1c-0.8-1.6-1.3-2.5-1.6-2.6c-0.5,0-1.4,1.2-2.8,3.7c-1.5,2.5-2.5,3.7-3.3,3.7h-24.9
		V723h32.1l0.3-16.2c2.7-3.7,6.4-8.2,11.1-13.4l0.2,1.4c0,5.2-0.9,13-2.8,23.1c-0.4,2.3-0.6,3.5-0.5,3.6c0.1,0.9,0.9,1.4,2.5,1.4
		h3.8V735.3z"/>
	<path class="st0" d="M515.4,657.3l-7,13.9l-1.8-0.5l4.1,41.2c0,3.1-0.6,7.7-1.7,13.7c-1.2,6.4-2.4,9.7-3.6,9.7h-32.3V723h30.4
		c0.3,0,0.5-1,0.5-2.9c0-8.2-2.4-26.6-7.2-55.2l-0.9-0.3c-1.6-1-2.3-2.2-2.3-3.6c0-1,0.3-1.9,0.8-3l6.4-11.1c1.2-2.2,2.1-3,2.7-2.5
		l1.1,1.2l-0.6,2.1l-0.7,2c0,0.7,0.5,1.4,1.4,1.9C508.4,653.6,512,655.5,515.4,657.3"/>
	<path class="st0" d="M546.5,718.9c0,4.4-1.9,11.4-5.7,21.2c-1.9-21.7-4.4-47.9-7.7-78.7c-0.4-3.4,2.7-10.5,9.2-21.3
		c0.5,0.8,1.4,14.1,2.6,39.7L546.5,718.9z"/>
	<path class="st0" d="M634.1,714.7c-0.3-4.3-4.7-9.1-13.4-14.4c-2.7,3.2-5.9,7.5-9.4,12.7c-0.6,1.3-0.9,2.6-0.9,3.8c0,4,2.3,6,7,6
		c4.3,0,8.8-1,13.6-3C633.1,718.3,634.2,716.6,634.1,714.7 M639.2,664.8l-5.8,9.6l-13.6-8.2l-4.1,7.7l-14.4-8.4l6-10.2l13.3,8.4
		l4.6-7.6L639.2,664.8z M643.4,707.3c0,2.9-1.6,7.8-4.8,14.6c-2.4,3.2-4.7,5.5-6.9,7.2c-4.4,3.4-9.5,5.5-15.6,6.2
		c-3.8,0.4-7.3,0-10.3-1.3c-3.7-1.6-5.5-4.3-5.5-8c0-5.6,4.4-14.2,13.3-25.7l11.3-14.8c1.3,1.6,3.7,3.7,7,6.2c3.8,2.7,6.1,4.5,7,5.4
		C641.9,699.9,643.4,703.3,643.4,707.3"/>
	<path class="st0" d="M699,729.1c0,8.7-3.5,18.1-10.5,28c-6.3,9.2-13,13.7-20,13.7c-3.5,0-9.3-1.5-17.5-4.6
		c-8.8-3.4-13.3-6.1-13.3-8.3l1-1c0.4,0,3,1,7.7,2.9c4.8,1.9,8.6,2.9,11.5,2.9c6.4,0,14-4.3,23-13c9-8.6,13.4-16.1,13.4-22.5
		c0-4.6-5.4-10.8-16.4-18.7c0.6-2.7,1.7-7.6,3.3-14.9c5.7,4.5,9.8,8.7,12.3,12.6C697.2,712.4,699,720,699,729.1"/>
	<path class="st0" d="M730.9,718.9c0,4.4-1.9,11.4-5.8,21.2c-1.9-21.7-4.4-47.9-7.7-78.7c-0.4-3.4,2.7-10.5,9.2-21.3
		c0.5,0.8,1.3,14.1,2.6,39.7L730.9,718.9z"/>
	<path class="st0" d="M778.9,667.8l-5.9,10l-13.9-8.4l6-9.8L778.9,667.8z M794.3,729.1c0,8.7-3.5,18.1-10.5,28
		c-6.3,9.2-13,13.7-20,13.7c-3.5,0-9.3-1.5-17.5-4.6c-8.8-3.4-13.2-6.1-13.2-8.3l1-1c0.4,0,3,1,7.8,2.9c4.7,1.9,8.6,2.9,11.5,2.9
		c6.3,0,14-4.3,23-13c8.9-8.6,13.4-16.1,13.4-22.5c0-4.6-5.4-10.8-16.3-18.7c0.6-2.7,1.7-7.6,3.2-14.9c5.8,4.5,9.8,8.7,12.3,12.6
		C792.5,712.4,794.3,720,794.3,729.1"/>
	<path class="st0" d="M844.1,716.6c0-2.6-0.8-5.4-2.5-8.5c-1.9-3.3-4.1-5-6.6-5.1c-1.8-0.1-3.9,1.1-6.3,3.6
		c-2.4,2.5-3.6,4.6-3.5,6.4c0.1,2,1.6,3.5,4.5,4.6c2.2,0.9,4.5,1.3,6.8,1.3C840.4,718.9,842.9,718.1,844.1,716.6 M853.1,718.1
		c0,11.6-2.4,22.3-7.2,32.3c-2.5,5.2-5.8,9.8-9.8,13.8c-5.1,5-9.9,7.3-14.6,6.9c-4.1-0.3-9.9-1.3-17.2-2.8c-9.3-2-13.9-3.8-13.9-5.4
		c0-0.8,0.6-1.3,1.8-1.3c1.7,0,4.4,0.5,8.1,1.4c3.6,0.9,6.3,1.4,8.2,1.4c2,0,3.8-0.3,5.4-0.8c7.8-2.9,15.4-7.9,22.7-14.9
		c7.9-7.6,11.7-14.7,11.6-21.1c0-3.1-0.3-5.6-1-7.6c-2.6,5.9-5.4,9.6-8.2,11.1c-1.9,1-4.7,1.3-8.6,1c-3.3-0.3-5.8-2.2-7.6-5.8
		c-1.4-2.8-2.1-6.1-2.2-9.8c0-4,2.1-9.5,6.5-16.7c4.7-7.6,8.9-11.4,12.4-11.4c2.5,0,5.3,3.2,8.6,9.5
		C851.4,704.4,853.1,711.2,853.1,718.1"/>
	<polygon class="st0" points="160.1,795.9 175.1,835.4 190.3,795.9 200.3,795.9 200.3,848.4 191.6,848.4 191.6,812.2 177.7,848.4 
		172,848.4 158.7,812.2 158.7,848.4 150,848.4 150,795.9 	"/>
	<path class="st0" d="M207.3,848.4h8.6v-37.9h-8.6V848.4z M207.3,803.4h8.6v-7.5h-8.6V803.4z"/>
	<path class="st0" d="M222,810.5h8.7v3.1c1.7-1.3,3.4-2.2,5.4-2.8c1.9-0.6,3.9-0.9,5.9-0.9c2,0,3.8,0.3,5.4,0.8
		c1.6,0.5,2.9,1.3,3.9,2.3c1.1,1,1.9,2.2,2.5,3.6c0.6,1.4,0.9,3,0.9,4.8v26.9H246v-26.3c0-2.3-0.4-3.9-1.3-4.9
		c-0.9-0.9-2.1-1.4-3.8-1.4c-1.4,0-2.7,0.3-4,0.8c-1.2,0.6-2.3,1.3-3.2,2.2c-0.9,0.9-1.6,2-2.2,3.2c-0.5,1.2-0.8,2.4-0.8,3.7v22.6
		H222V810.5z"/>
	<path class="st0" d="M261.4,848.4h8.6v-37.9h-8.6V848.4z M261.4,803.4h8.6v-7.5h-8.6V803.4z"/>
	<path class="st0" d="M285,835.8c0,1.3,0.2,2.5,0.6,3.4c0.4,0.9,0.9,1.7,1.5,2.3l2.1,1.3c0.8,0.3,1.7,0.4,2.7,0.4
		c0.8,0,1.6-0.1,2.5-0.2c0.9-0.2,1.7-0.4,2.4-0.8l1.8-1.6c0.5-0.7,0.7-1.5,0.7-2.5c0-0.9-0.2-1.7-0.7-2.3l-1.8-1.7
		c-0.7-0.5-1.6-0.9-2.6-1.2c-1-0.4-2-0.8-3.1-1.1c-1.6-0.6-3.2-1.2-4.9-1.8c-1.6-0.6-3-1.4-4.3-2.2c-1.3-0.9-2.3-1.9-3.2-3.1
		c-0.8-1.3-1.2-2.7-1.2-4.5c0-1.7,0.4-3.2,1.2-4.5c0.8-1.3,1.8-2.3,3.2-3.2c1.3-0.8,2.9-1.4,4.6-1.8c1.7-0.4,3.5-0.6,5.4-0.6
		c2.1,0,4.1,0.2,5.9,0.7c1.8,0.4,3.4,1.1,4.7,2c1.4,0.9,2.4,2.1,3.2,3.5c0.8,1.4,1.2,3.1,1.3,5h-0.6l-1,0h-1h-0.7h-5.4
		c-0.2-1-0.4-1.8-0.8-2.5l-1.4-1.6l-2-0.9l-2.3-0.2c-1.8,0-3.2,0.4-4.2,1.1c-1,0.8-1.4,1.8-1.4,3l0.7,2.2l1.8,1.6
		c0.8,0.5,1.7,0.9,2.7,1.3c1,0.4,2,0.8,3.1,1.1c1.6,0.6,3.2,1.2,4.8,1.8c1.6,0.7,3.1,1.4,4.4,2.3c1.3,0.9,2.3,1.8,3.2,3
		c0.8,1.1,1.2,2.5,1.2,4c0,2.1-0.5,3.9-1.3,5.4c-0.9,1.5-2.1,2.7-3.6,3.6c-1.5,0.9-3.2,1.6-5.2,2.1c-2,0.4-4,0.7-6.2,0.7
		c-2.1,0-4.1-0.3-6-0.8c-1.8-0.5-3.5-1.4-4.9-2.5c-1.4-1.1-2.5-2.5-3.4-4.1c-0.9-1.7-1.3-3.6-1.4-5.8H285z"/>
	<path class="st0" d="M325.3,799.6v10.9h5.7v5.9h-5.7v23.1c0,1.4,0.2,2.3,0.7,2.9l1.8,0.8l1.3-0.2c0.6-0.1,1.6-0.2,2.8-0.5v5.7
		c-1.1,0.3-2.1,0.5-3.2,0.7c-1.1,0.2-2.1,0.2-3,0.2c-1.2,0-2.3-0.2-3.4-0.4c-1.1-0.3-2.1-0.7-2.9-1.3c-0.8-0.6-1.5-1.4-2-2.4
		c-0.5-1-0.7-2.2-0.7-3.6v-25h-5.7v-5.9h5.7v-10.9H325.3z"/>
	<path class="st0" d="M336.8,810.5h7.7l0.5,3.4c1-1.3,2.2-2.3,3.6-3c1.4-0.7,2.9-1.1,4.4-1.1l1.9,0.2l2.3,0.6v7.1
		c-2.4-0.9-3.8-1.3-4.3-1.3c-1.2,0-2.2,0.2-3.1,0.7c-0.9,0.5-1.7,1.2-2.3,2c-0.6,0.8-1.1,1.8-1.4,2.9c-0.3,1.1-0.5,2.3-0.5,3.5v22.7
		h-8.6V810.5z"/>
	<path class="st0" d="M376.2,836.4l8.9-25.9h9l-16.1,45.6c-0.5,1.5-1.2,2.8-2,3.9c-0.7,1-1.6,1.9-2.5,2.5c-0.9,0.7-1.8,1.2-2.7,1.4
		c-0.9,0.3-1.9,0.4-2.8,0.4c-0.8,0-1.6,0-2.5-0.2c-0.9-0.1-1.9-0.4-3-0.9v-6.4l1.3,0.5l1.4,0.5l1.3,0.4l0.8,0.1l1-0.5l0.9-1.4
		l0.7-1.7l0.5-1.6l1.6-5.1L358,810.5h9.2L376.2,836.4z"/>
	<path class="st0" d="M421.3,829.4c0,1.9,0.2,3.7,0.7,5.3c0.4,1.6,1.1,3.1,1.9,4.3c0.8,1.3,1.8,2.2,3,2.9c1.2,0.7,2.5,1.1,4,1.1
		c1.5,0,2.8-0.4,4-1.1c1.2-0.7,2.2-1.6,3-2.9c0.9-1.2,1.5-2.7,2-4.3c0.5-1.6,0.7-3.4,0.7-5.3c0-1.8-0.2-3.6-0.7-5.2
		c-0.4-1.7-1.1-3.1-2-4.3c-0.8-1.3-1.8-2.2-3-2.9c-1.2-0.7-2.5-1.1-4-1.1c-1.4,0-2.8,0.4-4,1.1c-1.2,0.7-2.2,1.7-3,2.9
		c-0.9,1.2-1.5,2.7-1.9,4.3C421.5,825.8,421.3,827.6,421.3,829.4 M412.7,829.5c0-2.7,0.4-5.2,1.2-7.6c0.8-2.3,2-4.5,3.5-6.3
		c1.5-1.8,3.4-3.2,5.7-4.2c2.3-1.1,4.9-1.6,7.8-1.6c2.9,0,5.6,0.5,7.8,1.6c2.3,1,4.2,2.4,5.8,4.2c1.6,1.8,2.7,3.9,3.6,6.3
		c0.8,2.4,1.2,4.9,1.2,7.6c0,2.7-0.4,5.3-1.2,7.6c-0.8,2.4-2,4.5-3.6,6.2c-1.6,1.8-3.5,3.2-5.8,4.2c-2.3,1-4.9,1.6-7.8,1.6
		c-2.9,0-5.6-0.5-7.8-1.6c-2.2-1-4.1-2.4-5.7-4.2c-1.6-1.8-2.7-3.8-3.5-6.2C413,834.8,412.7,832.2,412.7,829.5"/>
	<path class="st0" d="M459.3,810.5v-8.4c0-1.1,0.2-2.1,0.6-3c0.4-1,1.1-1.8,1.9-2.5c0.8-0.7,1.8-1.2,3-1.6c1.2-0.4,2.5-0.6,3.9-0.6
		c0.9,0,1.9,0.2,3,0.5c1.1,0.4,2.2,0.8,3.2,1.5v5.7c-1.3-0.5-2.3-0.9-3.1-1.2l-1.3-0.5l-1.8,0.6c-0.5,0.4-0.7,1.1-0.7,2.1v7.4h6.4
		v6.1H468v31.8h-8.7v-31.8H453v-6.1H459.3z"/>
	<path class="st0" d="M504.2,821.4c0,3.8,0.5,7.1,1.4,9.9c0.9,2.8,2.1,5.2,3.6,7c1.5,1.8,3.2,3.2,5.1,4.1c1.9,0.9,3.8,1.3,5.8,1.3
		c2,0,3.8-0.4,5.4-1.2c1.6-0.8,3-1.8,4.2-3.2c1.3-1.3,2.2-2.9,3-4.6c0.8-1.7,1.4-3.4,1.8-5.2h8.8c-0.5,2.8-1.4,5.5-2.7,7.9
		c-1.2,2.5-2.9,4.6-4.8,6.5c-2,1.8-4.3,3.3-6.9,4.3c-2.6,1.1-5.6,1.6-8.8,1.6c-3.8,0-7.1-0.7-10.1-2c-3-1.3-5.6-3.2-7.7-5.6
		c-2.1-2.4-3.8-5.4-5-9c-1.1-3.5-1.7-7.5-1.7-12c0-2.3,0.2-4.5,0.7-6.8c0.5-2.2,1.3-4.3,2.2-6.4c0.9-2,2.1-3.8,3.5-5.5
		c1.4-1.7,3-3.1,4.8-4.4c1.8-1.2,3.8-2.2,6.1-2.9c2.2-0.7,4.6-1,7.2-1c3.3,0,6.2,0.4,8.8,1.3c2.6,0.9,4.9,2.1,6.8,3.6
		c2,1.6,3.6,3.4,4.8,5.5c1.3,2.1,2.3,4.4,3,7h-8.9c-1.4-3.8-3.2-6.7-5.6-8.6c-2.3-1.8-5.3-2.8-9-2.8c-2.3,0-4.5,0.5-6.4,1.7
		c-1.9,1.1-3.6,2.7-5,4.6c-1.4,1.9-2.5,4.1-3.2,6.7C504.5,815.9,504.2,818.6,504.2,821.4"/>
	<path class="st0" d="M557.5,829.4c0,1.9,0.2,3.7,0.7,5.3c0.4,1.6,1.1,3.1,1.9,4.3c0.8,1.3,1.8,2.2,3,2.9c1.2,0.7,2.5,1.1,4,1.1
		c1.5,0,2.8-0.4,4-1.1c1.2-0.7,2.2-1.6,3-2.9c0.9-1.2,1.5-2.7,1.9-4.3c0.5-1.6,0.7-3.4,0.7-5.3c0-1.8-0.2-3.6-0.7-5.2
		c-0.4-1.7-1.1-3.1-1.9-4.3c-0.8-1.3-1.8-2.2-3-2.9c-1.2-0.7-2.5-1.1-4-1.1c-1.4,0-2.8,0.4-4,1.1c-1.2,0.7-2.2,1.7-3,2.9
		c-0.8,1.2-1.5,2.7-1.9,4.3C557.7,825.8,557.5,827.6,557.5,829.4 M548.9,829.5c0-2.7,0.4-5.2,1.2-7.6c0.8-2.3,2-4.5,3.5-6.3
		c1.5-1.8,3.4-3.2,5.7-4.2c2.3-1.1,4.9-1.6,7.8-1.6c2.9,0,5.6,0.5,7.9,1.6c2.3,1,4.2,2.4,5.7,4.2c1.6,1.8,2.8,3.9,3.6,6.3
		c0.8,2.4,1.2,4.9,1.2,7.6c0,2.7-0.4,5.3-1.2,7.6c-0.8,2.4-2,4.5-3.6,6.2c-1.6,1.8-3.5,3.2-5.7,4.2c-2.3,1-4.9,1.6-7.9,1.6
		c-2.9,0-5.6-0.5-7.8-1.6c-2.2-1-4.1-2.4-5.7-4.2c-1.6-1.8-2.7-3.8-3.5-6.2C549.2,834.8,548.9,832.2,548.9,829.5"/>
	<path class="st0" d="M591.3,810.5h8.6v2.8c1.5-1.3,3.1-2.1,4.9-2.7c1.8-0.5,3.4-0.8,5-0.8c1.8,0,3.6,0.4,5.3,1.1
		c1.6,0.7,3.2,2,4.5,3.8c0.7-0.9,1.6-1.7,2.5-2.3c1-0.6,2-1.1,3-1.6c1.1-0.4,2.1-0.7,3.2-0.9c1.1-0.2,2.1-0.3,3.1-0.3
		c1.9,0,3.7,0.3,5.3,0.9c1.6,0.6,3,1.4,4.2,2.5c1.1,1.1,2,2.3,2.7,3.7c0.7,1.4,1,3,1,4.6v26.9h-8.6V823c0-1.4-0.2-2.6-0.5-3.5
		c-0.3-0.9-0.8-1.6-1.3-2.2l-1.8-1.1l-2-0.4c-0.9,0-1.9,0.2-2.9,0.7c-0.9,0.5-1.8,1.1-2.5,2c-0.7,0.8-1.4,1.8-1.8,3
		c-0.5,1.1-0.7,2.3-0.7,3.7v23.2h-8.6V823c0-1.4-0.2-2.6-0.5-3.5c-0.4-0.9-0.7-1.6-1.3-2.2l-1.7-1.1l-1.8-0.4
		c-1.2,0-2.3,0.3-3.4,0.9c-1,0.6-2,1.4-2.7,2.4c-0.8,0.9-1.4,2-1.8,3.1c-0.4,1.2-0.7,2.3-0.7,3.3v22.8h-8.6V810.5z"/>
	<path class="st0" d="M651,810.5h8.6v2.8c1.5-1.3,3.1-2.1,4.9-2.7c1.8-0.5,3.4-0.8,5-0.8c1.8,0,3.6,0.4,5.3,1.1
		c1.6,0.7,3.2,2,4.5,3.8c0.7-0.9,1.6-1.7,2.5-2.3c0.9-0.6,2-1.1,3-1.6c1.1-0.4,2.1-0.7,3.2-0.9c1.1-0.2,2.1-0.3,3.1-0.3
		c1.9,0,3.7,0.3,5.3,0.9c1.6,0.6,3,1.4,4.2,2.5c1.1,1.1,2,2.3,2.7,3.7c0.7,1.4,1,3,1,4.6v26.9h-8.6V823c0-1.4-0.2-2.6-0.5-3.5
		c-0.3-0.9-0.8-1.6-1.3-2.2l-1.8-1.1l-2-0.4c-1,0-1.9,0.2-2.9,0.7c-0.9,0.5-1.8,1.1-2.5,2c-0.7,0.8-1.4,1.8-1.8,3
		c-0.5,1.1-0.7,2.3-0.7,3.7v23.2h-8.6V823c0-1.4-0.2-2.6-0.5-3.5c-0.4-0.9-0.8-1.6-1.3-2.2l-1.7-1.1l-1.8-0.4
		c-1.2,0-2.3,0.3-3.4,0.9c-1,0.6-2,1.4-2.7,2.4c-0.8,0.9-1.4,2-1.8,3.1c-0.4,1.2-0.7,2.3-0.7,3.3v22.8H651V810.5z"/>
	<path class="st0" d="M737.9,825.7c-0.1-1.4-0.4-2.7-0.8-3.9c-0.5-1.2-1.1-2.2-1.9-3.1c-0.8-0.9-1.8-1.6-2.9-2.1
		c-1.1-0.5-2.4-0.7-3.8-0.7c-1.2,0-2.4,0.3-3.5,0.8c-1.1,0.5-2,1.2-2.8,2.1c-0.8,0.9-1.4,2-1.9,3.1c-0.5,1.2-0.8,2.4-0.9,3.8H737.9z
		 M719.5,831.1c0.1,1.6,0.4,3.1,0.9,4.5c0.5,1.5,1.2,2.8,2,3.9c0.8,1.1,1.8,2,2.9,2.7c1.1,0.7,2.3,1,3.6,1c4.3,0,7.4-2.4,9.1-7.3
		h8.1c-0.4,2.1-1.2,4-2.3,5.6c-1.1,1.6-2.4,3-3.9,4.2c-1.5,1.1-3.2,2-5.1,2.6c-1.8,0.6-3.8,0.9-5.8,0.9c-2.8,0-5.4-0.5-7.6-1.6
		c-2.3-1.1-4.2-2.5-5.8-4.4c-1.6-1.8-2.8-4-3.7-6.5c-0.9-2.4-1.3-5-1.3-7.7c0-2.5,0.5-5,1.3-7.3c0.8-2.3,2.1-4.3,3.6-6.1
		c1.6-1.8,3.5-3.2,5.8-4.2c2.3-1.1,4.8-1.6,7.6-1.6c2.7,0,5.2,0.5,7.4,1.4c2.2,0.9,4.1,2.2,5.6,3.8c1.6,1.7,2.7,3.6,3.6,5.9
		c0.8,2.2,1.2,4.7,1.2,7.3v2.7H719.5z"/>
	<path class="st0" d="M752.2,810.5h7.7l0.5,3.4c1-1.3,2.2-2.3,3.6-3c1.4-0.7,2.9-1.1,4.4-1.1l1.9,0.2l2.3,0.6v7.1
		c-2.4-0.9-3.8-1.3-4.3-1.3c-1.2,0-2.2,0.2-3.1,0.7c-0.9,0.5-1.7,1.2-2.3,2c-0.6,0.8-1.1,1.8-1.4,2.9c-0.4,1.1-0.5,2.3-0.5,3.5v22.7
		h-8.6V810.5z"/>
	<path class="st0" d="M802,823c-0.7-2.6-1.7-4.5-2.9-5.5c-1.3-1.1-2.8-1.6-4.7-1.6c-1.4,0-2.7,0.4-3.8,1.1c-1.1,0.7-2.1,1.7-2.8,2.9
		c-0.8,1.2-1.4,2.6-1.8,4.1c-0.4,1.6-0.6,3.2-0.6,4.9c0,1.8,0.2,3.6,0.6,5.3c0.4,1.7,1,3.2,1.8,4.6c0.7,1.3,1.7,2.4,2.8,3.2
		c1.1,0.8,2.3,1.2,3.7,1.2c1.1,0,2-0.2,2.9-0.7l2.2-1.9c0.6-0.8,1.2-1.8,1.6-2.8c0.4-1.1,0.7-2.2,1-3.4h9.1
		c-0.3,2.3-0.9,4.4-1.7,6.3c-0.9,1.8-2.1,3.4-3.5,4.7c-1.4,1.3-3.2,2.3-5.1,3c-2,0.7-4.1,1-6.6,1c-3,0-5.6-0.6-7.8-1.8
		c-2.2-1.2-4-2.8-5.4-4.7c-1.4-2-2.4-4.1-3.1-6.6c-0.6-2.4-1-4.8-1-7.2c0-2.7,0.4-5.2,1.3-7.5c0.9-2.3,2-4.3,3.6-6
		c1.5-1.7,3.4-3,5.6-4c2.2-1,4.6-1.5,7.3-1.5c2.4,0,4.5,0.4,6.4,1c1.9,0.7,3.5,1.6,4.8,2.7c1.3,1.1,2.5,2.5,3.3,4.1
		c0.9,1.6,1.5,3.4,1.9,5.2H802z"/>
	<path class="st0" d="M843.8,825.7c-0.1-1.4-0.4-2.7-0.8-3.9c-0.5-1.2-1.1-2.2-1.9-3.1c-0.8-0.9-1.8-1.6-2.9-2.1
		c-1.1-0.5-2.4-0.7-3.8-0.7c-1.2,0-2.4,0.3-3.5,0.8c-1.1,0.5-2,1.2-2.8,2.1c-0.8,0.9-1.4,2-1.9,3.1c-0.5,1.2-0.8,2.4-0.9,3.8H843.8z
		 M825.4,831.1c0.1,1.6,0.4,3.1,0.9,4.5c0.5,1.5,1.2,2.8,2,3.9c0.9,1.1,1.8,2,2.9,2.7c1.1,0.7,2.3,1,3.6,1c4.4,0,7.4-2.4,9.1-7.3
		h8.1c-0.4,2.1-1.2,4-2.3,5.6c-1.1,1.6-2.4,3-3.9,4.2c-1.5,1.1-3.2,2-5.1,2.6c-1.9,0.6-3.8,0.9-5.8,0.9c-2.8,0-5.4-0.5-7.6-1.6
		c-2.3-1.1-4.2-2.5-5.8-4.4c-1.6-1.8-2.9-4-3.7-6.5c-0.9-2.4-1.3-5-1.3-7.7c0-2.5,0.4-5,1.3-7.3c0.9-2.3,2.1-4.3,3.6-6.1
		c1.6-1.8,3.5-3.2,5.8-4.2c2.3-1.1,4.8-1.6,7.6-1.6c2.7,0,5.2,0.5,7.4,1.4c2.2,0.9,4.1,2.2,5.6,3.8c1.6,1.7,2.7,3.6,3.6,5.9
		c0.8,2.2,1.3,4.7,1.3,7.3v2.7H825.4z"/>
</g>
</svg>
